G04 #@! TF.GenerationSoftware,KiCad,Pcbnew,7.0.10-7.0.10~ubuntu22.04.1*
G04 #@! TF.CreationDate,2024-01-29T17:38:52+05:30*
G04 #@! TF.ProjectId,bir-weather-hat,6269722d-7765-4617-9468-65722d686174,rev?*
G04 #@! TF.SameCoordinates,Original*
G04 #@! TF.FileFunction,Legend,Bot*
G04 #@! TF.FilePolarity,Positive*
%FSLAX46Y46*%
G04 Gerber Fmt 4.6, Leading zero omitted, Abs format (unit mm)*
G04 Created by KiCad (PCBNEW 7.0.10-7.0.10~ubuntu22.04.1) date 2024-01-29 17:38:52*
%MOMM*%
%LPD*%
G01*
G04 APERTURE LIST*
%ADD10C,0.025400*%
%ADD11C,0.150000*%
%ADD12C,0.203200*%
%ADD13C,0.120000*%
G04 APERTURE END LIST*
D10*
X140834533Y-49120287D02*
X140834533Y-49410573D01*
X140834533Y-49410573D02*
X140815180Y-49468630D01*
X140815180Y-49468630D02*
X140776476Y-49507335D01*
X140776476Y-49507335D02*
X140718418Y-49526687D01*
X140718418Y-49526687D02*
X140679714Y-49526687D01*
X141221580Y-49120287D02*
X141028056Y-49120287D01*
X141028056Y-49120287D02*
X141008704Y-49313811D01*
X141008704Y-49313811D02*
X141028056Y-49294458D01*
X141028056Y-49294458D02*
X141066761Y-49275106D01*
X141066761Y-49275106D02*
X141163523Y-49275106D01*
X141163523Y-49275106D02*
X141202228Y-49294458D01*
X141202228Y-49294458D02*
X141221580Y-49313811D01*
X141221580Y-49313811D02*
X141240933Y-49352515D01*
X141240933Y-49352515D02*
X141240933Y-49449277D01*
X141240933Y-49449277D02*
X141221580Y-49487982D01*
X141221580Y-49487982D02*
X141202228Y-49507335D01*
X141202228Y-49507335D02*
X141163523Y-49526687D01*
X141163523Y-49526687D02*
X141066761Y-49526687D01*
X141066761Y-49526687D02*
X141028056Y-49507335D01*
X141028056Y-49507335D02*
X141008704Y-49487982D01*
X140511981Y-51726687D02*
X140376514Y-51533163D01*
X140279752Y-51726687D02*
X140279752Y-51320287D01*
X140279752Y-51320287D02*
X140434571Y-51320287D01*
X140434571Y-51320287D02*
X140473276Y-51339639D01*
X140473276Y-51339639D02*
X140492629Y-51358992D01*
X140492629Y-51358992D02*
X140511981Y-51397696D01*
X140511981Y-51397696D02*
X140511981Y-51455754D01*
X140511981Y-51455754D02*
X140492629Y-51494458D01*
X140492629Y-51494458D02*
X140473276Y-51513811D01*
X140473276Y-51513811D02*
X140434571Y-51533163D01*
X140434571Y-51533163D02*
X140279752Y-51533163D01*
X140666800Y-51610573D02*
X140860324Y-51610573D01*
X140628095Y-51726687D02*
X140763562Y-51320287D01*
X140763562Y-51320287D02*
X140899029Y-51726687D01*
X141034495Y-51726687D02*
X141034495Y-51320287D01*
X141228019Y-51726687D02*
X141228019Y-51320287D01*
X141228019Y-51320287D02*
X141460248Y-51726687D01*
X141460248Y-51726687D02*
X141460248Y-51320287D01*
X153834533Y-49130287D02*
X153834533Y-49420573D01*
X153834533Y-49420573D02*
X153815180Y-49478630D01*
X153815180Y-49478630D02*
X153776476Y-49517335D01*
X153776476Y-49517335D02*
X153718418Y-49536687D01*
X153718418Y-49536687D02*
X153679714Y-49536687D01*
X154202228Y-49265754D02*
X154202228Y-49536687D01*
X154105466Y-49110935D02*
X154008704Y-49401220D01*
X154008704Y-49401220D02*
X154260285Y-49401220D01*
X153182991Y-51330287D02*
X153279753Y-51736687D01*
X153279753Y-51736687D02*
X153357162Y-51446401D01*
X153357162Y-51446401D02*
X153434572Y-51736687D01*
X153434572Y-51736687D02*
X153531334Y-51330287D01*
X153686152Y-51736687D02*
X153686152Y-51330287D01*
X153879676Y-51736687D02*
X153879676Y-51330287D01*
X153879676Y-51330287D02*
X154111905Y-51736687D01*
X154111905Y-51736687D02*
X154111905Y-51330287D01*
X154305428Y-51736687D02*
X154305428Y-51330287D01*
X154305428Y-51330287D02*
X154402190Y-51330287D01*
X154402190Y-51330287D02*
X154460247Y-51349639D01*
X154460247Y-51349639D02*
X154498952Y-51388344D01*
X154498952Y-51388344D02*
X154518305Y-51427049D01*
X154518305Y-51427049D02*
X154537657Y-51504458D01*
X154537657Y-51504458D02*
X154537657Y-51562515D01*
X154537657Y-51562515D02*
X154518305Y-51639925D01*
X154518305Y-51639925D02*
X154498952Y-51678630D01*
X154498952Y-51678630D02*
X154460247Y-51717335D01*
X154460247Y-51717335D02*
X154402190Y-51736687D01*
X154402190Y-51736687D02*
X154305428Y-51736687D01*
X127714533Y-49130287D02*
X127714533Y-49420573D01*
X127714533Y-49420573D02*
X127695180Y-49478630D01*
X127695180Y-49478630D02*
X127656476Y-49517335D01*
X127656476Y-49517335D02*
X127598418Y-49536687D01*
X127598418Y-49536687D02*
X127559714Y-49536687D01*
X127869352Y-49130287D02*
X128120933Y-49130287D01*
X128120933Y-49130287D02*
X127985466Y-49285106D01*
X127985466Y-49285106D02*
X128043523Y-49285106D01*
X128043523Y-49285106D02*
X128082228Y-49304458D01*
X128082228Y-49304458D02*
X128101580Y-49323811D01*
X128101580Y-49323811D02*
X128120933Y-49362515D01*
X128120933Y-49362515D02*
X128120933Y-49459277D01*
X128120933Y-49459277D02*
X128101580Y-49497982D01*
X128101580Y-49497982D02*
X128082228Y-49517335D01*
X128082228Y-49517335D02*
X128043523Y-49536687D01*
X128043523Y-49536687D02*
X127927409Y-49536687D01*
X127927409Y-49536687D02*
X127888704Y-49517335D01*
X127888704Y-49517335D02*
X127869352Y-49497982D01*
X127343600Y-51620573D02*
X127537124Y-51620573D01*
X127304895Y-51736687D02*
X127440362Y-51330287D01*
X127440362Y-51330287D02*
X127575829Y-51736687D01*
X127982229Y-51775392D02*
X127943524Y-51756039D01*
X127943524Y-51756039D02*
X127904819Y-51717335D01*
X127904819Y-51717335D02*
X127846762Y-51659277D01*
X127846762Y-51659277D02*
X127808057Y-51639925D01*
X127808057Y-51639925D02*
X127769353Y-51639925D01*
X127788705Y-51736687D02*
X127750000Y-51717335D01*
X127750000Y-51717335D02*
X127711295Y-51678630D01*
X127711295Y-51678630D02*
X127691943Y-51601220D01*
X127691943Y-51601220D02*
X127691943Y-51465754D01*
X127691943Y-51465754D02*
X127711295Y-51388344D01*
X127711295Y-51388344D02*
X127750000Y-51349639D01*
X127750000Y-51349639D02*
X127788705Y-51330287D01*
X127788705Y-51330287D02*
X127866114Y-51330287D01*
X127866114Y-51330287D02*
X127904819Y-51349639D01*
X127904819Y-51349639D02*
X127943524Y-51388344D01*
X127943524Y-51388344D02*
X127962876Y-51465754D01*
X127962876Y-51465754D02*
X127962876Y-51601220D01*
X127962876Y-51601220D02*
X127943524Y-51678630D01*
X127943524Y-51678630D02*
X127904819Y-51717335D01*
X127904819Y-51717335D02*
X127866114Y-51736687D01*
X127866114Y-51736687D02*
X127788705Y-51736687D01*
X128137047Y-51736687D02*
X128137047Y-51330287D01*
X114584533Y-49120287D02*
X114584533Y-49410573D01*
X114584533Y-49410573D02*
X114565180Y-49468630D01*
X114565180Y-49468630D02*
X114526476Y-49507335D01*
X114526476Y-49507335D02*
X114468418Y-49526687D01*
X114468418Y-49526687D02*
X114429714Y-49526687D01*
X114758704Y-49158992D02*
X114778056Y-49139639D01*
X114778056Y-49139639D02*
X114816761Y-49120287D01*
X114816761Y-49120287D02*
X114913523Y-49120287D01*
X114913523Y-49120287D02*
X114952228Y-49139639D01*
X114952228Y-49139639D02*
X114971580Y-49158992D01*
X114971580Y-49158992D02*
X114990933Y-49197696D01*
X114990933Y-49197696D02*
X114990933Y-49236401D01*
X114990933Y-49236401D02*
X114971580Y-49294458D01*
X114971580Y-49294458D02*
X114739352Y-49526687D01*
X114739352Y-49526687D02*
X114990933Y-49526687D01*
X113884609Y-51320287D02*
X114116838Y-51320287D01*
X114000724Y-51726687D02*
X114000724Y-51320287D01*
X114252304Y-51513811D02*
X114387771Y-51513811D01*
X114445828Y-51726687D02*
X114252304Y-51726687D01*
X114252304Y-51726687D02*
X114252304Y-51320287D01*
X114252304Y-51320287D02*
X114445828Y-51320287D01*
X114619999Y-51726687D02*
X114619999Y-51320287D01*
X114619999Y-51320287D02*
X114755466Y-51610573D01*
X114755466Y-51610573D02*
X114890933Y-51320287D01*
X114890933Y-51320287D02*
X114890933Y-51726687D01*
X115084456Y-51726687D02*
X115084456Y-51320287D01*
X115084456Y-51320287D02*
X115239275Y-51320287D01*
X115239275Y-51320287D02*
X115277980Y-51339639D01*
X115277980Y-51339639D02*
X115297333Y-51358992D01*
X115297333Y-51358992D02*
X115316685Y-51397696D01*
X115316685Y-51397696D02*
X115316685Y-51455754D01*
X115316685Y-51455754D02*
X115297333Y-51494458D01*
X115297333Y-51494458D02*
X115277980Y-51513811D01*
X115277980Y-51513811D02*
X115239275Y-51533163D01*
X115239275Y-51533163D02*
X115084456Y-51533163D01*
D11*
X104874819Y-48146666D02*
X105589104Y-48146666D01*
X105589104Y-48146666D02*
X105731961Y-48099047D01*
X105731961Y-48099047D02*
X105827200Y-48003809D01*
X105827200Y-48003809D02*
X105874819Y-47860952D01*
X105874819Y-47860952D02*
X105874819Y-47765714D01*
X105874819Y-49146666D02*
X105874819Y-48575238D01*
X105874819Y-48860952D02*
X104874819Y-48860952D01*
X104874819Y-48860952D02*
X105017676Y-48765714D01*
X105017676Y-48765714D02*
X105112914Y-48670476D01*
X105112914Y-48670476D02*
X105160533Y-48575238D01*
D12*
X132950000Y-47440000D02*
X132950000Y-60440000D01*
X145070000Y-47440000D02*
X132950000Y-47440000D01*
X145070000Y-60440000D02*
X132950000Y-60440000D01*
X145070000Y-60440000D02*
X145070000Y-47440000D01*
X145950000Y-47450000D02*
X145950000Y-60450000D01*
X158070000Y-47450000D02*
X145950000Y-47450000D01*
X158070000Y-60450000D02*
X145950000Y-60450000D01*
X158070000Y-60450000D02*
X158070000Y-47450000D01*
X119830000Y-47450000D02*
X119830000Y-60450000D01*
X131950000Y-47450000D02*
X119830000Y-47450000D01*
X131950000Y-60450000D02*
X119830000Y-60450000D01*
X131950000Y-60450000D02*
X131950000Y-47450000D01*
X118820000Y-60440000D02*
X118820000Y-47440000D01*
X118820000Y-60440000D02*
X106700000Y-60440000D01*
X118820000Y-47440000D02*
X106700000Y-47440000D01*
X106700000Y-47440000D02*
X106700000Y-60440000D01*
D13*
X107430000Y-51080000D02*
X107430000Y-52440000D01*
X141970000Y-51080000D02*
X142990000Y-51080000D01*
X114030000Y-45880000D02*
X115050000Y-45880000D01*
X129270000Y-45880000D02*
X130290000Y-45880000D01*
X119110000Y-51080000D02*
X120130000Y-51080000D01*
X157210000Y-45880000D02*
X157780000Y-45880000D01*
X111490000Y-51080000D02*
X112510000Y-51080000D01*
X129270000Y-51080000D02*
X130290000Y-51080000D01*
X126730000Y-51080000D02*
X127750000Y-51080000D01*
X134350000Y-45880000D02*
X135370000Y-45880000D01*
X131810000Y-51080000D02*
X132830000Y-51080000D01*
X106860000Y-45880000D02*
X106860000Y-51080000D01*
X126730000Y-45880000D02*
X127750000Y-45880000D01*
X144510000Y-45880000D02*
X145530000Y-45880000D01*
X124190000Y-51080000D02*
X125210000Y-51080000D01*
X147050000Y-51080000D02*
X148070000Y-51080000D01*
X124190000Y-45880000D02*
X125210000Y-45880000D01*
X108950000Y-51080000D02*
X109970000Y-51080000D01*
X121650000Y-51080000D02*
X122670000Y-51080000D01*
X152130000Y-45880000D02*
X153150000Y-45880000D01*
X119110000Y-45880000D02*
X120130000Y-45880000D01*
X121650000Y-45880000D02*
X122670000Y-45880000D01*
X108950000Y-45880000D02*
X109970000Y-45880000D01*
X144510000Y-51080000D02*
X145530000Y-51080000D01*
X134350000Y-51080000D02*
X135370000Y-51080000D01*
X136890000Y-51080000D02*
X137910000Y-51080000D01*
X154670000Y-51080000D02*
X155690000Y-51080000D01*
X154670000Y-45880000D02*
X155690000Y-45880000D01*
X139430000Y-45880000D02*
X140450000Y-45880000D01*
X149590000Y-45880000D02*
X150610000Y-45880000D01*
X114030000Y-51080000D02*
X115050000Y-51080000D01*
X136890000Y-45880000D02*
X137910000Y-45880000D01*
X106860000Y-51080000D02*
X107430000Y-51080000D01*
X139430000Y-51080000D02*
X140450000Y-51080000D01*
X141970000Y-45880000D02*
X142990000Y-45880000D01*
X149590000Y-51080000D02*
X150610000Y-51080000D01*
X131810000Y-45880000D02*
X132830000Y-45880000D01*
X106860000Y-45880000D02*
X107430000Y-45880000D01*
X111490000Y-45880000D02*
X112510000Y-45880000D01*
X147050000Y-45880000D02*
X148070000Y-45880000D01*
X116570000Y-45880000D02*
X117590000Y-45880000D01*
X157210000Y-51080000D02*
X157780000Y-51080000D01*
X152130000Y-51080000D02*
X153150000Y-51080000D01*
X116570000Y-51080000D02*
X117590000Y-51080000D01*
X157780000Y-45880000D02*
X157780000Y-51080000D01*
M02*
