M48
; DRILL file {KiCad 7.0.10-7.0.10~ubuntu22.04.1} date Monday 29 January 2024 05:31:04 PM
; FORMAT={-:-/ absolute / inch / decimal}
; #@! TF.CreationDate,2024-01-29T17:31:04+05:30
; #@! TF.GenerationSoftware,Kicad,Pcbnew,7.0.10-7.0.10~ubuntu22.04.1
; #@! TF.FileFunction,Plated,1,2,PTH
FMAT,2
INCH
; #@! TA.AperFunction,Plated,PTH,ViaDrill
T1C0.0236
; #@! TA.AperFunction,Plated,PTH,ComponentDrill
T2C0.0394
; #@! TA.AperFunction,Plated,PTH,ComponentDrill
T3C0.0400
%
G90
G05
T1
X4.311Y-1.811
X4.5965Y-2.4311
X4.6063Y-1.8898
X4.6654Y-1.7421
X4.7244Y-2.1161
X5.0591Y-2.0965
X5.1673Y-2.4016
X5.2264Y-2.4508
X5.2756Y-2.5098
X5.4035Y-1.9094
X5.7776Y-2.1752
X6.0728Y-2.5787
T2
X4.037Y-3.237
X4.037Y-3.337
X4.037Y-3.437
X4.037Y-3.537
X4.137Y-3.237
X4.137Y-3.337
X4.137Y-3.437
X4.137Y-3.537
X4.237Y-2.837
X4.237Y-2.937
X4.237Y-3.037
X4.237Y-3.137
X4.237Y-3.237
X4.237Y-3.337
X4.237Y-3.437
X4.237Y-3.537
X4.237Y-3.637
X4.237Y-3.737
X4.2768Y-2.5394
X4.337Y-2.837
X4.337Y-2.937
X4.337Y-3.037
X4.337Y-3.137
X4.337Y-3.237
X4.337Y-3.337
X4.337Y-3.437
X4.337Y-3.537
X4.337Y-3.637
X4.337Y-3.737
X4.3768Y-2.5394
X4.437Y-2.837
X4.437Y-2.937
X4.437Y-3.037
X4.437Y-3.137
X4.437Y-3.237
X4.437Y-3.337
X4.437Y-3.437
X4.437Y-3.537
X4.437Y-3.637
X4.437Y-3.737
X4.4768Y-2.5394
X4.537Y-2.837
X4.537Y-2.937
X4.537Y-3.037
X4.537Y-3.137
X4.537Y-3.237
X4.537Y-3.337
X4.537Y-3.437
X4.537Y-3.537
X4.537Y-3.637
X4.537Y-3.737
X4.5768Y-2.5394
X4.637Y-2.837
X4.637Y-2.937
X4.637Y-3.037
X4.637Y-3.137
X4.637Y-3.237
X4.637Y-3.337
X4.637Y-3.437
X4.637Y-3.537
X4.637Y-3.637
X4.637Y-3.737
X4.6768Y-2.5394
X4.737Y-2.837
X4.737Y-2.937
X4.737Y-3.037
X4.737Y-3.137
X4.737Y-3.237
X4.737Y-3.337
X4.737Y-3.437
X4.737Y-3.537
X4.737Y-3.637
X4.737Y-3.737
X4.837Y-2.837
X4.837Y-2.937
X4.837Y-3.037
X4.837Y-3.137
X4.837Y-3.237
X4.837Y-3.337
X4.837Y-3.437
X4.837Y-3.537
X4.837Y-3.637
X4.837Y-3.737
X4.937Y-2.837
X4.937Y-2.937
X4.937Y-3.037
X4.937Y-3.137
X4.937Y-3.237
X4.937Y-3.337
X4.937Y-3.437
X4.937Y-3.537
X4.937Y-3.637
X4.937Y-3.737
X5.037Y-2.837
X5.037Y-2.937
X5.037Y-3.037
X5.037Y-3.137
X5.037Y-3.237
X5.037Y-3.337
X5.037Y-3.437
X5.037Y-3.537
X5.037Y-3.637
X5.037Y-3.737
X5.137Y-3.037
X5.137Y-3.137
X5.137Y-3.237
X5.137Y-3.337
X5.137Y-3.437
X5.137Y-3.537
X5.137Y-3.637
X5.137Y-3.737
X5.237Y-3.037
X5.237Y-3.137
X5.237Y-3.237
X5.237Y-3.337
X5.237Y-3.437
X5.237Y-3.537
X5.237Y-3.637
X5.237Y-3.737
X5.337Y-3.037
X5.337Y-3.137
X5.337Y-3.237
X5.337Y-3.337
X5.337Y-3.437
X5.337Y-3.537
X5.337Y-3.637
X5.337Y-3.737
X5.437Y-3.037
X5.437Y-3.137
X5.437Y-3.237
X5.437Y-3.337
X5.437Y-3.437
X5.437Y-3.537
X5.437Y-3.637
X5.437Y-3.737
X5.537Y-3.037
X5.537Y-3.137
X5.537Y-3.237
X5.537Y-3.337
X5.537Y-3.437
X5.537Y-3.537
X5.537Y-3.637
X5.537Y-3.737
X5.837Y-3.037
X5.837Y-3.137
X5.837Y-3.237
X5.837Y-3.337
X5.837Y-3.437
X5.837Y-3.537
X5.837Y-3.637
X5.837Y-3.737
X5.937Y-3.037
X5.937Y-3.137
X5.937Y-3.237
X5.937Y-3.337
X5.937Y-3.437
X5.937Y-3.537
X5.937Y-3.637
X5.937Y-3.737
X6.037Y-3.037
X6.037Y-3.137
X6.037Y-3.237
X6.037Y-3.337
X6.037Y-3.437
X6.037Y-3.537
X6.037Y-3.637
X6.037Y-3.737
X6.137Y-3.037
X6.137Y-3.137
X6.137Y-3.237
X6.137Y-3.337
X6.137Y-3.437
X6.137Y-3.537
X6.137Y-3.637
X6.137Y-3.737
X6.237Y-3.037
X6.237Y-3.137
X6.237Y-3.237
X6.237Y-3.337
X6.237Y-3.437
X6.237Y-3.537
X6.337Y-3.037
X6.337Y-3.137
X6.337Y-3.237
X6.337Y-3.337
X6.337Y-3.437
X6.337Y-3.537
T3
X4.3169Y-2.285
X4.3669Y-2.185
X4.4169Y-2.285
X4.4669Y-2.185
X4.5169Y-2.285
X4.5669Y-2.185
X4.8339Y-2.2854
X4.8839Y-2.1854
X4.9339Y-2.2854
X4.9839Y-2.1854
X5.0339Y-2.2854
X5.0839Y-2.1854
X5.3504Y-2.285
X5.4004Y-2.185
X5.4504Y-2.285
X5.5004Y-2.185
X5.5504Y-2.285
X5.6004Y-2.185
X5.8622Y-2.2854
X5.9122Y-2.1854
X5.9622Y-2.2854
X6.0122Y-2.1854
X6.0622Y-2.2854
X6.1122Y-2.1854
M30
