G04 #@! TF.GenerationSoftware,KiCad,Pcbnew,7.0.10-7.0.10~ubuntu22.04.1*
G04 #@! TF.CreationDate,2024-01-29T17:30:26+05:30*
G04 #@! TF.ProjectId,bir-weather-hat,6269722d-7765-4617-9468-65722d686174,rev?*
G04 #@! TF.SameCoordinates,Original*
G04 #@! TF.FileFunction,Profile,NP*
%FSLAX46Y46*%
G04 Gerber Fmt 4.6, Leading zero omitted, Abs format (unit mm)*
G04 Created by KiCad (PCBNEW 7.0.10-7.0.10~ubuntu22.04.1) date 2024-01-29 17:30:26*
%MOMM*%
%LPD*%
G01*
G04 APERTURE LIST*
G04 #@! TA.AperFunction,Profile*
%ADD10C,0.050000*%
G04 #@! TD*
G04 #@! TA.AperFunction,Profile*
%ADD11C,0.100000*%
G04 #@! TD*
G04 APERTURE END LIST*
D10*
X164999999Y-46300000D02*
X165000000Y-46021320D01*
X162000000Y-43000000D02*
X161901055Y-43010030D01*
D11*
X104500000Y-80500000D02*
G75*
G03*
X105000000Y-80000000I46447J453553D01*
G01*
X164999999Y-46300000D02*
G75*
G03*
X161901055Y-43010030I-2999999J278680D01*
G01*
X100000000Y-63000000D02*
G75*
G03*
X100500000Y-63500000I500000J0D01*
G01*
X165000000Y-97000000D02*
X165000000Y-46021320D01*
X100000000Y-46000000D02*
X100000000Y-63000000D01*
X146000000Y-81000000D02*
X146000000Y-96000000D01*
X144000000Y-96000000D02*
X144000000Y-81000000D01*
X100000000Y-97000000D02*
G75*
G03*
X103000000Y-100000000I3000000J0D01*
G01*
X103000000Y-100000000D02*
X162000000Y-100000000D01*
X104500000Y-80500000D02*
X100500000Y-80500000D01*
X146000000Y-81000000D02*
G75*
G03*
X144000000Y-81000000I-1000000J0D01*
G01*
X100499127Y-80500001D02*
G75*
G03*
X100000000Y-81000000I873J-499999D01*
G01*
X162000000Y-100000000D02*
G75*
G03*
X165000000Y-97000000I0J3000000D01*
G01*
X105000000Y-64000000D02*
X105000000Y-80000000D01*
X103000000Y-43000000D02*
G75*
G03*
X100000000Y-46000000I0J-3000000D01*
G01*
X144000000Y-96000000D02*
G75*
G03*
X146000000Y-96000000I1000000J0D01*
G01*
X100000000Y-81000000D02*
X100000000Y-97000000D01*
X100500000Y-63500000D02*
X104500000Y-63500000D01*
X105000000Y-64000000D02*
G75*
G03*
X104500000Y-63500000I-500000J0D01*
G01*
X162000000Y-43000000D02*
X103000000Y-43000000D01*
M02*
