G04 #@! TF.GenerationSoftware,KiCad,Pcbnew,7.0.10-7.0.10~ubuntu22.04.1*
G04 #@! TF.CreationDate,2024-01-29T17:30:17+05:30*
G04 #@! TF.ProjectId,bir-weather-hat,6269722d-7765-4617-9468-65722d686174,rev?*
G04 #@! TF.SameCoordinates,Original*
G04 #@! TF.FileFunction,Copper,L1,Top*
G04 #@! TF.FilePolarity,Positive*
%FSLAX46Y46*%
G04 Gerber Fmt 4.6, Leading zero omitted, Abs format (unit mm)*
G04 Created by KiCad (PCBNEW 7.0.10-7.0.10~ubuntu22.04.1) date 2024-01-29 17:30:17*
%MOMM*%
%LPD*%
G01*
G04 APERTURE LIST*
G04 Aperture macros list*
%AMRoundRect*
0 Rectangle with rounded corners*
0 $1 Rounding radius*
0 $2 $3 $4 $5 $6 $7 $8 $9 X,Y pos of 4 corners*
0 Add a 4 corners polygon primitive as box body*
4,1,4,$2,$3,$4,$5,$6,$7,$8,$9,$2,$3,0*
0 Add four circle primitives for the rounded corners*
1,1,$1+$1,$2,$3*
1,1,$1+$1,$4,$5*
1,1,$1+$1,$6,$7*
1,1,$1+$1,$8,$9*
0 Add four rect primitives between the rounded corners*
20,1,$1+$1,$2,$3,$4,$5,0*
20,1,$1+$1,$4,$5,$6,$7,0*
20,1,$1+$1,$6,$7,$8,$9,0*
20,1,$1+$1,$8,$9,$2,$3,0*%
G04 Aperture macros list end*
G04 #@! TA.AperFunction,ComponentPad*
%ADD10R,1.700000X1.700000*%
G04 #@! TD*
G04 #@! TA.AperFunction,ComponentPad*
%ADD11O,1.700000X1.700000*%
G04 #@! TD*
G04 #@! TA.AperFunction,ComponentPad*
%ADD12C,1.879600*%
G04 #@! TD*
G04 #@! TA.AperFunction,SMDPad,CuDef*
%ADD13RoundRect,0.150000X-0.150000X0.825000X-0.150000X-0.825000X0.150000X-0.825000X0.150000X0.825000X0*%
G04 #@! TD*
G04 #@! TA.AperFunction,SMDPad,CuDef*
%ADD14RoundRect,0.250000X-0.450000X0.262500X-0.450000X-0.262500X0.450000X-0.262500X0.450000X0.262500X0*%
G04 #@! TD*
G04 #@! TA.AperFunction,ViaPad*
%ADD15C,0.900000*%
G04 #@! TD*
G04 #@! TA.AperFunction,Conductor*
%ADD16C,0.300000*%
G04 #@! TD*
G04 APERTURE END LIST*
D10*
X107620000Y-77140000D03*
D11*
X107620000Y-79680000D03*
X110160000Y-77140000D03*
X110160000Y-79680000D03*
X112700000Y-77140000D03*
X112700000Y-79680000D03*
X115240000Y-77140000D03*
X115240000Y-79680000D03*
X117780000Y-77140000D03*
X117780000Y-79680000D03*
X120320000Y-77140000D03*
X120320000Y-79680000D03*
X122860000Y-77140000D03*
X122860000Y-79680000D03*
X125400000Y-77140000D03*
X125400000Y-79680000D03*
X127940000Y-77140000D03*
X127940000Y-79680000D03*
X130480000Y-77140000D03*
X130480000Y-79680000D03*
X133020000Y-77140000D03*
X133020000Y-79680000D03*
X135560000Y-77140000D03*
X135560000Y-79680000D03*
X138100000Y-77140000D03*
X138100000Y-79680000D03*
X140640000Y-77140000D03*
X140640000Y-79680000D03*
D10*
X148260000Y-92380000D03*
D11*
X148260000Y-94920000D03*
X150800000Y-92380000D03*
X150800000Y-94920000D03*
X153340000Y-92380000D03*
X153340000Y-94920000D03*
X155880000Y-92380000D03*
X155880000Y-94920000D03*
D10*
X148260000Y-77140000D03*
D11*
X148260000Y-79680000D03*
X150800000Y-77140000D03*
X150800000Y-79680000D03*
X153340000Y-77140000D03*
X153340000Y-79680000D03*
X155880000Y-77140000D03*
X155880000Y-79680000D03*
X158420000Y-77140000D03*
X158420000Y-79680000D03*
X160960000Y-77140000D03*
X160960000Y-79680000D03*
D10*
X148260000Y-82220000D03*
D11*
X148260000Y-84760000D03*
X150800000Y-82220000D03*
X150800000Y-84760000D03*
X153340000Y-82220000D03*
X153340000Y-84760000D03*
X155880000Y-82220000D03*
X155880000Y-84760000D03*
X158420000Y-82220000D03*
X158420000Y-84760000D03*
X160960000Y-82220000D03*
X160960000Y-84760000D03*
D10*
X148260000Y-87300000D03*
D11*
X148260000Y-89840000D03*
X150800000Y-87300000D03*
X150800000Y-89840000D03*
X153340000Y-87300000D03*
X153340000Y-89840000D03*
X155880000Y-87300000D03*
X155880000Y-89840000D03*
X158420000Y-87300000D03*
X158420000Y-89840000D03*
X160960000Y-87300000D03*
X160960000Y-89840000D03*
D10*
X107620000Y-72060000D03*
D11*
X107620000Y-74600000D03*
X110160000Y-72060000D03*
X110160000Y-74600000D03*
X112700000Y-72060000D03*
X112700000Y-74600000D03*
X115240000Y-72060000D03*
X115240000Y-74600000D03*
X117780000Y-72060000D03*
X117780000Y-74600000D03*
X120320000Y-72060000D03*
X120320000Y-74600000D03*
X122860000Y-72060000D03*
X122860000Y-74600000D03*
X125400000Y-72060000D03*
X125400000Y-74600000D03*
X127940000Y-72060000D03*
X127940000Y-74600000D03*
D10*
X107620000Y-92380000D03*
D11*
X107620000Y-94920000D03*
X110160000Y-92380000D03*
X110160000Y-94920000D03*
X112700000Y-92380000D03*
X112700000Y-94920000D03*
X115240000Y-92380000D03*
X115240000Y-94920000D03*
X117780000Y-92380000D03*
X117780000Y-94920000D03*
X120320000Y-92380000D03*
X120320000Y-94920000D03*
X122860000Y-92380000D03*
X122860000Y-94920000D03*
X125400000Y-92380000D03*
X125400000Y-94920000D03*
X127940000Y-92380000D03*
X127940000Y-94920000D03*
X130480000Y-92380000D03*
X130480000Y-94920000D03*
X133020000Y-92380000D03*
X133020000Y-94920000D03*
X135560000Y-92380000D03*
X135560000Y-94920000D03*
X138100000Y-92380000D03*
X138100000Y-94920000D03*
X140640000Y-92380000D03*
X140640000Y-94920000D03*
D10*
X102540000Y-87300000D03*
D11*
X102540000Y-89840000D03*
X105080000Y-87300000D03*
X105080000Y-89840000D03*
X107620000Y-87300000D03*
X107620000Y-89840000D03*
X110160000Y-87300000D03*
X110160000Y-89840000D03*
X112700000Y-87300000D03*
X112700000Y-89840000D03*
X115240000Y-87300000D03*
X115240000Y-89840000D03*
X117780000Y-87300000D03*
X117780000Y-89840000D03*
X120320000Y-87300000D03*
X120320000Y-89840000D03*
X122860000Y-87300000D03*
X122860000Y-89840000D03*
X125400000Y-87300000D03*
X125400000Y-89840000D03*
X127940000Y-87300000D03*
X127940000Y-89840000D03*
X130480000Y-87300000D03*
X130480000Y-89840000D03*
X133020000Y-87300000D03*
X133020000Y-89840000D03*
X135560000Y-87300000D03*
X135560000Y-89840000D03*
X138100000Y-87300000D03*
X138100000Y-89840000D03*
X140640000Y-87300000D03*
X140640000Y-89840000D03*
D10*
X102540000Y-82220000D03*
D11*
X102540000Y-84760000D03*
X105080000Y-82220000D03*
X105080000Y-84760000D03*
X107620000Y-82220000D03*
X107620000Y-84760000D03*
X110160000Y-82220000D03*
X110160000Y-84760000D03*
X112700000Y-82220000D03*
X112700000Y-84760000D03*
X115240000Y-82220000D03*
X115240000Y-84760000D03*
X117780000Y-82220000D03*
X117780000Y-84760000D03*
X120320000Y-82220000D03*
X120320000Y-84760000D03*
X122860000Y-82220000D03*
X122860000Y-84760000D03*
X125400000Y-82220000D03*
X125400000Y-84760000D03*
X127940000Y-82220000D03*
X127940000Y-84760000D03*
X130480000Y-82220000D03*
X130480000Y-84760000D03*
X133020000Y-82220000D03*
X133020000Y-84760000D03*
X135560000Y-82220000D03*
X135560000Y-84760000D03*
X138100000Y-82220000D03*
X138100000Y-84760000D03*
X140640000Y-82220000D03*
X140640000Y-84760000D03*
D10*
X108630000Y-64500000D03*
D11*
X111170000Y-64500000D03*
X113710000Y-64500000D03*
X116250000Y-64500000D03*
X118790000Y-64500000D03*
D12*
X142250000Y-55500000D03*
X140980000Y-58040000D03*
X139710000Y-55500000D03*
X138440000Y-58040000D03*
X137170000Y-55500000D03*
X135900000Y-58040000D03*
X155250000Y-55510000D03*
X153980000Y-58050000D03*
X152710000Y-55510000D03*
X151440000Y-58050000D03*
X150170000Y-55510000D03*
X148900000Y-58050000D03*
X129130000Y-55510000D03*
X127860000Y-58050000D03*
X126590000Y-55510000D03*
X125320000Y-58050000D03*
X124050000Y-55510000D03*
X122780000Y-58050000D03*
X109650000Y-58040000D03*
X110920000Y-55500000D03*
X112190000Y-58040000D03*
X113460000Y-55500000D03*
X114730000Y-58040000D03*
X116000000Y-55500000D03*
D13*
X155945000Y-67975000D03*
X154675000Y-67975000D03*
X153405000Y-67975000D03*
X152135000Y-67975000D03*
X150865000Y-67975000D03*
X149595000Y-67975000D03*
X148325000Y-67975000D03*
X147055000Y-67975000D03*
X147055000Y-63025000D03*
X148325000Y-63025000D03*
X149595000Y-63025000D03*
X150865000Y-63025000D03*
X152135000Y-63025000D03*
X153405000Y-63025000D03*
X154675000Y-63025000D03*
X155945000Y-63025000D03*
D14*
X158250000Y-62500000D03*
X158250000Y-64325000D03*
D15*
X118500000Y-44250000D03*
X117000000Y-48000000D03*
X120000000Y-53750000D03*
X109500000Y-46000000D03*
X146750000Y-55250000D03*
X131250000Y-61000000D03*
X132750000Y-62250000D03*
X134000000Y-63750000D03*
X137250000Y-48500000D03*
X154250000Y-65500000D03*
X116750000Y-61750000D03*
X128500000Y-53250000D03*
D16*
X122250000Y-48000000D02*
X124050000Y-49800000D01*
X124050000Y-49800000D02*
X124050000Y-55510000D01*
X117000000Y-48000000D02*
X122250000Y-48000000D01*
X125320000Y-58050000D02*
X125320000Y-59430000D01*
X125320000Y-59430000D02*
X124750000Y-60000000D01*
X124750000Y-60000000D02*
X120750000Y-60000000D01*
X120750000Y-60000000D02*
X120750000Y-55250000D01*
X114500000Y-49500000D02*
X114000000Y-49000000D01*
X120750000Y-55250000D02*
X122250000Y-53750000D01*
X122250000Y-53750000D02*
X122250000Y-52250000D01*
X122250000Y-52250000D02*
X119500000Y-49500000D01*
X119500000Y-49500000D02*
X114500000Y-49500000D01*
X114000000Y-49000000D02*
X114000000Y-48500000D01*
X114000000Y-48500000D02*
X118250000Y-44250000D01*
X118250000Y-44250000D02*
X118500000Y-44250000D01*
X120000000Y-53750000D02*
X118250000Y-52000000D01*
X118250000Y-52000000D02*
X110000000Y-52000000D01*
X110000000Y-52000000D02*
X109500000Y-51500000D01*
X109500000Y-51500000D02*
X109500000Y-46000000D01*
X108630000Y-66380000D02*
X109500000Y-67250000D01*
X108630000Y-64500000D02*
X108630000Y-66380000D01*
X132750000Y-70500000D02*
X132750000Y-67250000D01*
X132750000Y-67250000D02*
X132750000Y-65250000D01*
X109500000Y-67250000D02*
X132750000Y-67250000D01*
X154675000Y-67975000D02*
X154675000Y-70575000D01*
X129750000Y-62250000D02*
X129750000Y-59250000D01*
X154675000Y-70575000D02*
X152000000Y-73250000D01*
X152000000Y-73250000D02*
X135500000Y-73250000D01*
X135500000Y-73250000D02*
X132750000Y-70500000D01*
X129750000Y-59250000D02*
X131500000Y-57500000D01*
X131500000Y-53500000D02*
X128750000Y-53500000D01*
X132750000Y-65250000D02*
X129750000Y-62250000D01*
X131500000Y-57500000D02*
X131500000Y-53500000D01*
X128750000Y-53500000D02*
X128500000Y-53250000D01*
X146750000Y-57500000D02*
X146750000Y-55250000D01*
X146687500Y-57562500D02*
X146750000Y-57500000D01*
X138440000Y-58040000D02*
X138440000Y-59440000D01*
X138440000Y-59440000D02*
X139250000Y-60250000D01*
X139250000Y-60250000D02*
X144000000Y-60250000D01*
X144000000Y-60250000D02*
X146687500Y-57562500D01*
X131250000Y-61000000D02*
X134000000Y-61000000D01*
X134000000Y-61000000D02*
X136000000Y-63000000D01*
X136000000Y-63000000D02*
X136000000Y-69500000D01*
X136000000Y-69500000D02*
X137250000Y-70750000D01*
X149595000Y-70155000D02*
X149595000Y-67975000D01*
X137250000Y-70750000D02*
X149000000Y-70750000D01*
X149000000Y-70750000D02*
X149595000Y-70155000D01*
X132750000Y-62250000D02*
X134000000Y-62250000D01*
X136500000Y-71500000D02*
X150250000Y-71500000D01*
X134000000Y-62250000D02*
X135000000Y-63250000D01*
X150250000Y-71500000D02*
X150865000Y-70885000D01*
X135000000Y-63250000D02*
X135000000Y-70000000D01*
X135000000Y-70000000D02*
X136500000Y-71500000D01*
X150865000Y-70885000D02*
X150865000Y-67975000D01*
X136000000Y-72250000D02*
X151000000Y-72250000D01*
X134000000Y-63750000D02*
X134000000Y-70250000D01*
X134000000Y-70250000D02*
X136000000Y-72250000D01*
X151000000Y-72250000D02*
X152135000Y-71115000D01*
X152135000Y-71115000D02*
X152135000Y-67975000D01*
X137250000Y-48500000D02*
X137250000Y-52750000D01*
X135750000Y-61250000D02*
X141000000Y-61250000D01*
X148325000Y-69175000D02*
X148325000Y-67975000D01*
X137250000Y-52750000D02*
X134000000Y-56000000D01*
X134000000Y-56000000D02*
X134000000Y-59500000D01*
X134000000Y-59500000D02*
X135750000Y-61250000D01*
X141000000Y-61250000D02*
X144750000Y-65000000D01*
X144750000Y-65000000D02*
X144750000Y-69250000D01*
X144750000Y-69250000D02*
X145500000Y-70000000D01*
X145500000Y-70000000D02*
X147500000Y-70000000D01*
X147500000Y-70000000D02*
X148325000Y-69175000D01*
X150750000Y-68090000D02*
X150865000Y-67975000D01*
X155945000Y-67975000D02*
X155945000Y-66555000D01*
X155945000Y-66555000D02*
X156500000Y-66000000D01*
X159750000Y-63000000D02*
X159250000Y-62500000D01*
X159250000Y-62500000D02*
X158250000Y-62500000D01*
X156500000Y-66000000D02*
X159750000Y-66000000D01*
X159750000Y-66000000D02*
X159750000Y-63000000D01*
X154675000Y-67975000D02*
X155945000Y-67975000D01*
X157245000Y-64325000D02*
X155945000Y-63025000D01*
X158250000Y-64325000D02*
X157245000Y-64325000D01*
X150170000Y-55510000D02*
X150170000Y-54330000D01*
X150170000Y-54330000D02*
X151000000Y-53500000D01*
X151000000Y-53500000D02*
X156500000Y-53500000D01*
X156500000Y-53500000D02*
X157000000Y-54000000D01*
X157000000Y-54000000D02*
X157000000Y-60750000D01*
X157000000Y-60750000D02*
X155945000Y-61805000D01*
X155945000Y-61805000D02*
X155945000Y-63025000D01*
X153405000Y-66345000D02*
X154250000Y-65500000D01*
X153405000Y-66655000D02*
X153405000Y-66345000D01*
X147055000Y-67975000D02*
X147055000Y-66445000D01*
X147055000Y-66445000D02*
X148000000Y-65500000D01*
X148000000Y-65500000D02*
X152250000Y-65500000D01*
X152250000Y-65500000D02*
X153405000Y-66655000D01*
X153405000Y-66655000D02*
X153405000Y-67975000D01*
X153980000Y-58050000D02*
X152710000Y-56780000D01*
X152710000Y-56780000D02*
X152710000Y-55510000D01*
X116750000Y-61750000D02*
X118500000Y-60000000D01*
X118500000Y-60000000D02*
X118500000Y-55000000D01*
X118500000Y-55000000D02*
X117000000Y-53500000D01*
X117000000Y-53500000D02*
X114500000Y-53500000D01*
X114500000Y-53500000D02*
X113460000Y-54540000D01*
X113460000Y-54540000D02*
X113460000Y-55500000D01*
X113710000Y-64500000D02*
X113710000Y-60540000D01*
X113710000Y-60540000D02*
X114730000Y-59520000D01*
X114730000Y-59520000D02*
X114730000Y-58040000D01*
M02*
