G04 #@! TF.GenerationSoftware,KiCad,Pcbnew,7.0.10-7.0.10~ubuntu22.04.1*
G04 #@! TF.CreationDate,2024-01-31T09:27:01+05:30*
G04 #@! TF.ProjectId,bir-weather-hat,6269722d-7765-4617-9468-65722d686174,rev?*
G04 #@! TF.SameCoordinates,Original*
G04 #@! TF.FileFunction,Copper,L2,Bot*
G04 #@! TF.FilePolarity,Positive*
%FSLAX46Y46*%
G04 Gerber Fmt 4.6, Leading zero omitted, Abs format (unit mm)*
G04 Created by KiCad (PCBNEW 7.0.10-7.0.10~ubuntu22.04.1) date 2024-01-31 09:27:01*
%MOMM*%
%LPD*%
G01*
G04 APERTURE LIST*
G04 #@! TA.AperFunction,ComponentPad*
%ADD10C,1.879600*%
G04 #@! TD*
G04 #@! TA.AperFunction,ComponentPad*
%ADD11R,1.700000X1.700000*%
G04 #@! TD*
G04 #@! TA.AperFunction,ComponentPad*
%ADD12O,1.700000X1.700000*%
G04 #@! TD*
G04 #@! TA.AperFunction,SMDPad,CuDef*
%ADD13R,1.000000X3.000000*%
G04 #@! TD*
G04 #@! TA.AperFunction,ViaPad*
%ADD14C,0.900000*%
G04 #@! TD*
G04 #@! TA.AperFunction,Conductor*
%ADD15C,0.300000*%
G04 #@! TD*
G04 APERTURE END LIST*
D10*
X148900000Y-58050000D03*
X150170000Y-55510000D03*
X151440000Y-58050000D03*
X152710000Y-55510000D03*
X153980000Y-58050000D03*
X155250000Y-55510000D03*
X135900000Y-58040000D03*
X137170000Y-55500000D03*
X138440000Y-58040000D03*
X139710000Y-55500000D03*
X140980000Y-58040000D03*
X142250000Y-55500000D03*
X122780000Y-58050000D03*
X124050000Y-55510000D03*
X125320000Y-58050000D03*
X126590000Y-55510000D03*
X127860000Y-58050000D03*
X129130000Y-55510000D03*
X116000000Y-55500000D03*
X114730000Y-58040000D03*
X113460000Y-55500000D03*
X112190000Y-58040000D03*
X110920000Y-55500000D03*
X109650000Y-58040000D03*
D11*
X148260000Y-87300000D03*
D12*
X148260000Y-89840000D03*
X150800000Y-87300000D03*
X150800000Y-89840000D03*
X153340000Y-87300000D03*
X153340000Y-89840000D03*
X155880000Y-87300000D03*
X155880000Y-89840000D03*
X158420000Y-87300000D03*
X158420000Y-89840000D03*
X160960000Y-87300000D03*
X160960000Y-89840000D03*
D11*
X148260000Y-92380000D03*
D12*
X148260000Y-94920000D03*
X150800000Y-92380000D03*
X150800000Y-94920000D03*
X153340000Y-92380000D03*
X153340000Y-94920000D03*
X155880000Y-92380000D03*
X155880000Y-94920000D03*
D11*
X107620000Y-92380000D03*
D12*
X107620000Y-94920000D03*
X110160000Y-92380000D03*
X110160000Y-94920000D03*
X112700000Y-92380000D03*
X112700000Y-94920000D03*
X115240000Y-92380000D03*
X115240000Y-94920000D03*
X117780000Y-92380000D03*
X117780000Y-94920000D03*
X120320000Y-92380000D03*
X120320000Y-94920000D03*
X122860000Y-92380000D03*
X122860000Y-94920000D03*
X125400000Y-92380000D03*
X125400000Y-94920000D03*
X127940000Y-92380000D03*
X127940000Y-94920000D03*
X130480000Y-92380000D03*
X130480000Y-94920000D03*
X133020000Y-92380000D03*
X133020000Y-94920000D03*
X135560000Y-92380000D03*
X135560000Y-94920000D03*
X138100000Y-92380000D03*
X138100000Y-94920000D03*
X140640000Y-92380000D03*
X140640000Y-94920000D03*
D11*
X107620000Y-77140000D03*
D12*
X107620000Y-79680000D03*
X110160000Y-77140000D03*
X110160000Y-79680000D03*
X112700000Y-77140000D03*
X112700000Y-79680000D03*
X115240000Y-77140000D03*
X115240000Y-79680000D03*
X117780000Y-77140000D03*
X117780000Y-79680000D03*
X120320000Y-77140000D03*
X120320000Y-79680000D03*
X122860000Y-77140000D03*
X122860000Y-79680000D03*
X125400000Y-77140000D03*
X125400000Y-79680000D03*
X127940000Y-77140000D03*
X127940000Y-79680000D03*
X130480000Y-77140000D03*
X130480000Y-79680000D03*
X133020000Y-77140000D03*
X133020000Y-79680000D03*
X135560000Y-77140000D03*
X135560000Y-79680000D03*
X138100000Y-77140000D03*
X138100000Y-79680000D03*
X140640000Y-77140000D03*
X140640000Y-79680000D03*
D11*
X102540000Y-82220000D03*
D12*
X102540000Y-84760000D03*
X105080000Y-82220000D03*
X105080000Y-84760000D03*
X107620000Y-82220000D03*
X107620000Y-84760000D03*
X110160000Y-82220000D03*
X110160000Y-84760000D03*
X112700000Y-82220000D03*
X112700000Y-84760000D03*
X115240000Y-82220000D03*
X115240000Y-84760000D03*
X117780000Y-82220000D03*
X117780000Y-84760000D03*
X120320000Y-82220000D03*
X120320000Y-84760000D03*
X122860000Y-82220000D03*
X122860000Y-84760000D03*
X125400000Y-82220000D03*
X125400000Y-84760000D03*
X127940000Y-82220000D03*
X127940000Y-84760000D03*
X130480000Y-82220000D03*
X130480000Y-84760000D03*
X133020000Y-82220000D03*
X133020000Y-84760000D03*
X135560000Y-82220000D03*
X135560000Y-84760000D03*
X138100000Y-82220000D03*
X138100000Y-84760000D03*
X140640000Y-82220000D03*
X140640000Y-84760000D03*
D11*
X108630000Y-64500000D03*
D12*
X111170000Y-64500000D03*
X113710000Y-64500000D03*
X116250000Y-64500000D03*
X118790000Y-64500000D03*
D11*
X148260000Y-82220000D03*
D12*
X148260000Y-84760000D03*
X150800000Y-82220000D03*
X150800000Y-84760000D03*
X153340000Y-82220000D03*
X153340000Y-84760000D03*
X155880000Y-82220000D03*
X155880000Y-84760000D03*
X158420000Y-82220000D03*
X158420000Y-84760000D03*
X160960000Y-82220000D03*
X160960000Y-84760000D03*
D11*
X107620000Y-72060000D03*
D12*
X107620000Y-74600000D03*
X110160000Y-72060000D03*
X110160000Y-74600000D03*
X112700000Y-72060000D03*
X112700000Y-74600000D03*
X115240000Y-72060000D03*
X115240000Y-74600000D03*
X117780000Y-72060000D03*
X117780000Y-74600000D03*
X120320000Y-72060000D03*
X120320000Y-74600000D03*
X122860000Y-72060000D03*
X122860000Y-74600000D03*
X125400000Y-72060000D03*
X125400000Y-74600000D03*
X127940000Y-72060000D03*
X127940000Y-74600000D03*
D11*
X102540000Y-87300000D03*
D12*
X102540000Y-89840000D03*
X105080000Y-87300000D03*
X105080000Y-89840000D03*
X107620000Y-87300000D03*
X107620000Y-89840000D03*
X110160000Y-87300000D03*
X110160000Y-89840000D03*
X112700000Y-87300000D03*
X112700000Y-89840000D03*
X115240000Y-87300000D03*
X115240000Y-89840000D03*
X117780000Y-87300000D03*
X117780000Y-89840000D03*
X120320000Y-87300000D03*
X120320000Y-89840000D03*
X122860000Y-87300000D03*
X122860000Y-89840000D03*
X125400000Y-87300000D03*
X125400000Y-89840000D03*
X127940000Y-87300000D03*
X127940000Y-89840000D03*
X130480000Y-87300000D03*
X130480000Y-89840000D03*
X133020000Y-87300000D03*
X133020000Y-89840000D03*
X135560000Y-87300000D03*
X135560000Y-89840000D03*
X138100000Y-87300000D03*
X138100000Y-89840000D03*
X140640000Y-87300000D03*
X140640000Y-89840000D03*
D11*
X148260000Y-77140000D03*
D12*
X148260000Y-79680000D03*
X150800000Y-77140000D03*
X150800000Y-79680000D03*
X153340000Y-77140000D03*
X153340000Y-79680000D03*
X155880000Y-77140000D03*
X155880000Y-79680000D03*
X158420000Y-77140000D03*
X158420000Y-79680000D03*
X160960000Y-77140000D03*
X160960000Y-79680000D03*
D13*
X108190000Y-51000000D03*
X108190000Y-45960000D03*
X110730000Y-51000000D03*
X110730000Y-45960000D03*
X113270000Y-51000000D03*
X113270000Y-45960000D03*
X115810000Y-51000000D03*
X115810000Y-45960000D03*
X118350000Y-51000000D03*
X118350000Y-45960000D03*
X120890000Y-51000000D03*
X120890000Y-45960000D03*
X123430000Y-51000000D03*
X123430000Y-45960000D03*
X125970000Y-51000000D03*
X125970000Y-45960000D03*
X128510000Y-51000000D03*
X128510000Y-45960000D03*
X131050000Y-51000000D03*
X131050000Y-45960000D03*
X133590000Y-51000000D03*
X133590000Y-45960000D03*
X136130000Y-51000000D03*
X136130000Y-45960000D03*
X138670000Y-51000000D03*
X138670000Y-45960000D03*
X141210000Y-51000000D03*
X141210000Y-45960000D03*
X143750000Y-51000000D03*
X143750000Y-45960000D03*
X146290000Y-51000000D03*
X146290000Y-45960000D03*
X148830000Y-51000000D03*
X148830000Y-45960000D03*
X151370000Y-51000000D03*
X151370000Y-45960000D03*
X153910000Y-51000000D03*
X153910000Y-45960000D03*
X156450000Y-51000000D03*
X156450000Y-45960000D03*
D14*
X154250000Y-65500000D03*
X116750000Y-61750000D03*
X117000000Y-48000000D03*
X118500000Y-44250000D03*
X131250000Y-61000000D03*
X132750000Y-62250000D03*
X134000000Y-63750000D03*
X137250000Y-48500000D03*
X146750000Y-55250000D03*
X109500000Y-46000000D03*
X120000000Y-53750000D03*
X128500000Y-53250000D03*
D15*
X139700000Y-48400000D02*
X142900000Y-48400000D01*
X153980000Y-65230000D02*
X153980000Y-58050000D01*
X138670000Y-54460000D02*
X139710000Y-55500000D01*
X119000000Y-48500000D02*
X118350000Y-49150000D01*
X127500000Y-60500000D02*
X118950000Y-60500000D01*
X115500000Y-48800000D02*
X113270000Y-46570000D01*
X118350000Y-51000000D02*
X118350000Y-59900000D01*
X153980000Y-58050000D02*
X147480000Y-64550000D01*
X148830000Y-47370000D02*
X148830000Y-45960000D01*
X118350000Y-51000000D02*
X118350000Y-49150000D01*
X118790000Y-60340000D02*
X118475000Y-60025000D01*
X147700000Y-48500000D02*
X148830000Y-47370000D01*
X123430000Y-47570000D02*
X122500000Y-48500000D01*
X112190000Y-58040000D02*
X112190000Y-59940000D01*
X149900000Y-48400000D02*
X155300000Y-48400000D01*
X156450000Y-52800000D02*
X155500000Y-53750000D01*
X112190000Y-59940000D02*
X112750000Y-60500000D01*
X138670000Y-51000000D02*
X138670000Y-49430000D01*
X118950000Y-60500000D02*
X118475000Y-60025000D01*
X123430000Y-45960000D02*
X123430000Y-47630000D01*
X153500000Y-53750000D02*
X152710000Y-54540000D01*
X116668629Y-48800000D02*
X115500000Y-48800000D01*
X118475000Y-60025000D02*
X118350000Y-59900000D01*
X127860000Y-60140000D02*
X127500000Y-60500000D01*
X143750000Y-47550000D02*
X144700000Y-48500000D01*
X118350000Y-49150000D02*
X117018629Y-49150000D01*
X147480000Y-64550000D02*
X135950000Y-64550000D01*
X148830000Y-47330000D02*
X149900000Y-48400000D01*
X118790000Y-64500000D02*
X118790000Y-60340000D01*
X124300000Y-48500000D02*
X129500000Y-48500000D01*
X123430000Y-45960000D02*
X123430000Y-47570000D01*
X143750000Y-47550000D02*
X143750000Y-45960000D01*
X138670000Y-51000000D02*
X138670000Y-54460000D01*
X120290000Y-66000000D02*
X118790000Y-64500000D01*
X129500000Y-48500000D02*
X131050000Y-46950000D01*
X131050000Y-45960000D02*
X131050000Y-47150000D01*
X118350000Y-59900000D02*
X117750000Y-60500000D01*
X156450000Y-49550000D02*
X156450000Y-51000000D01*
X135950000Y-64550000D02*
X134500000Y-66000000D01*
X138670000Y-49570000D02*
X138670000Y-51000000D01*
X156450000Y-51000000D02*
X156450000Y-52800000D01*
X142900000Y-48400000D02*
X143750000Y-47550000D01*
X112750000Y-60500000D02*
X117750000Y-60500000D01*
X127860000Y-58050000D02*
X127860000Y-60140000D01*
X131050000Y-46950000D02*
X131050000Y-45960000D01*
X123430000Y-47630000D02*
X124300000Y-48500000D01*
X144700000Y-48500000D02*
X147700000Y-48500000D01*
X117018629Y-49150000D02*
X116668629Y-48800000D01*
X122500000Y-48500000D02*
X119000000Y-48500000D01*
X138670000Y-49430000D02*
X139700000Y-48400000D01*
X152710000Y-54540000D02*
X152710000Y-55510000D01*
X134500000Y-66000000D02*
X120290000Y-66000000D01*
X155500000Y-53750000D02*
X153500000Y-53750000D01*
X154250000Y-65500000D02*
X153980000Y-65230000D01*
X113270000Y-46570000D02*
X113270000Y-45960000D01*
X148830000Y-45960000D02*
X148830000Y-47330000D01*
X155300000Y-48400000D02*
X156450000Y-49550000D01*
X112250000Y-54290000D02*
X112250000Y-53750000D01*
X113460000Y-55500000D02*
X112250000Y-54290000D01*
X113920000Y-61750000D02*
X116750000Y-61750000D01*
X111170000Y-64500000D02*
X113920000Y-61750000D01*
X112250000Y-53750000D02*
X110730000Y-52230000D01*
X110730000Y-52230000D02*
X110730000Y-51000000D01*
X113270000Y-52270000D02*
X113270000Y-51000000D01*
X116960000Y-58040000D02*
X117500000Y-57500000D01*
X114730000Y-58040000D02*
X116960000Y-58040000D01*
X117500000Y-53750000D02*
X114750000Y-53750000D01*
X114750000Y-53750000D02*
X113270000Y-52270000D01*
X117500000Y-57500000D02*
X117500000Y-53750000D01*
X117000000Y-48000000D02*
X116500000Y-48000000D01*
X116500000Y-48000000D02*
X115810000Y-47310000D01*
X115810000Y-47310000D02*
X115810000Y-45960000D01*
X118500000Y-44250000D02*
X118500000Y-45810000D01*
X118500000Y-45810000D02*
X118350000Y-45960000D01*
X131050000Y-53550000D02*
X131250000Y-53750000D01*
X131050000Y-51000000D02*
X131050000Y-53550000D01*
X131250000Y-53750000D02*
X131250000Y-60750000D01*
X131250000Y-60750000D02*
X131250000Y-61000000D01*
X132750000Y-55250000D02*
X132750000Y-61000000D01*
X133590000Y-54202894D02*
X133590000Y-54410000D01*
X133590000Y-54202894D02*
X133590000Y-51000000D01*
X133590000Y-54410000D02*
X132750000Y-55250000D01*
X132750000Y-61000000D02*
X132750000Y-62000000D01*
X132750000Y-62000000D02*
X132750000Y-62250000D01*
X134000000Y-55750000D02*
X134000000Y-58750000D01*
X134000000Y-61000000D02*
X134000000Y-63750000D01*
X136130000Y-51000000D02*
X136130000Y-53620000D01*
X134000000Y-58750000D02*
X134000000Y-61000000D01*
X136130000Y-53620000D02*
X135750000Y-54000000D01*
X135750000Y-54000000D02*
X134000000Y-55750000D01*
X136130000Y-45960000D02*
X136130000Y-47380000D01*
X136130000Y-47380000D02*
X137250000Y-48500000D01*
X144750000Y-52750000D02*
X144750000Y-57750000D01*
X143750000Y-51750000D02*
X144750000Y-52750000D01*
X143750000Y-51000000D02*
X143750000Y-51750000D01*
X147000000Y-60000000D02*
X149490000Y-60000000D01*
X149490000Y-60000000D02*
X151440000Y-58050000D01*
X144750000Y-57750000D02*
X147000000Y-60000000D01*
X146290000Y-54790000D02*
X146290000Y-51000000D01*
X146750000Y-55250000D02*
X146290000Y-54790000D01*
X109500000Y-46000000D02*
X109540000Y-45960000D01*
X126590000Y-55510000D02*
X126590000Y-54090000D01*
X126250000Y-53750000D02*
X120000000Y-53750000D01*
X126590000Y-54090000D02*
X126250000Y-53750000D01*
X109460000Y-45960000D02*
X109500000Y-46000000D01*
X108190000Y-45960000D02*
X109460000Y-45960000D01*
X109540000Y-45960000D02*
X110730000Y-45960000D01*
X108630000Y-64500000D02*
X108630000Y-61630000D01*
X108190000Y-53190000D02*
X108750000Y-53750000D01*
X107000000Y-55500000D02*
X110920000Y-55500000D01*
X110920000Y-54170000D02*
X110920000Y-55500000D01*
X106750000Y-55750000D02*
X107000000Y-55500000D01*
X108750000Y-53750000D02*
X110500000Y-53750000D01*
X108190000Y-51000000D02*
X108190000Y-53190000D01*
X108630000Y-61630000D02*
X106750000Y-59750000D01*
X128500000Y-53250000D02*
X128500000Y-51010000D01*
X128500000Y-51010000D02*
X128510000Y-51000000D01*
X106750000Y-59750000D02*
X106750000Y-55750000D01*
X110500000Y-53750000D02*
X110920000Y-54170000D01*
M02*
