G04 #@! TF.GenerationSoftware,KiCad,Pcbnew,7.0.10-7.0.10~ubuntu22.04.1*
G04 #@! TF.CreationDate,2024-01-31T09:27:01+05:30*
G04 #@! TF.ProjectId,bir-weather-hat,6269722d-7765-4617-9468-65722d686174,rev?*
G04 #@! TF.SameCoordinates,Original*
G04 #@! TF.FileFunction,Soldermask,Bot*
G04 #@! TF.FilePolarity,Negative*
%FSLAX46Y46*%
G04 Gerber Fmt 4.6, Leading zero omitted, Abs format (unit mm)*
G04 Created by KiCad (PCBNEW 7.0.10-7.0.10~ubuntu22.04.1) date 2024-01-31 09:27:01*
%MOMM*%
%LPD*%
G01*
G04 APERTURE LIST*
%ADD10C,1.879600*%
%ADD11C,2.700000*%
%ADD12R,1.700000X1.700000*%
%ADD13O,1.700000X1.700000*%
%ADD14R,1.000000X3.000000*%
G04 APERTURE END LIST*
D10*
X148900000Y-58050000D03*
X150170000Y-55510000D03*
X151440000Y-58050000D03*
X152710000Y-55510000D03*
X153980000Y-58050000D03*
X155250000Y-55510000D03*
X135900000Y-58040000D03*
X137170000Y-55500000D03*
X138440000Y-58040000D03*
X139710000Y-55500000D03*
X140980000Y-58040000D03*
X142250000Y-55500000D03*
X122780000Y-58050000D03*
X124050000Y-55510000D03*
X125320000Y-58050000D03*
X126590000Y-55510000D03*
X127860000Y-58050000D03*
X129130000Y-55510000D03*
X116000000Y-55500000D03*
X114730000Y-58040000D03*
X113460000Y-55500000D03*
X112190000Y-58040000D03*
X110920000Y-55500000D03*
X109650000Y-58040000D03*
D11*
X161500000Y-47500000D03*
D12*
X148260000Y-87300000D03*
D13*
X148260000Y-89840000D03*
X150800000Y-87300000D03*
X150800000Y-89840000D03*
X153340000Y-87300000D03*
X153340000Y-89840000D03*
X155880000Y-87300000D03*
X155880000Y-89840000D03*
X158420000Y-87300000D03*
X158420000Y-89840000D03*
X160960000Y-87300000D03*
X160960000Y-89840000D03*
D12*
X148260000Y-92380000D03*
D13*
X148260000Y-94920000D03*
X150800000Y-92380000D03*
X150800000Y-94920000D03*
X153340000Y-92380000D03*
X153340000Y-94920000D03*
X155880000Y-92380000D03*
X155880000Y-94920000D03*
D12*
X107620000Y-92380000D03*
D13*
X107620000Y-94920000D03*
X110160000Y-92380000D03*
X110160000Y-94920000D03*
X112700000Y-92380000D03*
X112700000Y-94920000D03*
X115240000Y-92380000D03*
X115240000Y-94920000D03*
X117780000Y-92380000D03*
X117780000Y-94920000D03*
X120320000Y-92380000D03*
X120320000Y-94920000D03*
X122860000Y-92380000D03*
X122860000Y-94920000D03*
X125400000Y-92380000D03*
X125400000Y-94920000D03*
X127940000Y-92380000D03*
X127940000Y-94920000D03*
X130480000Y-92380000D03*
X130480000Y-94920000D03*
X133020000Y-92380000D03*
X133020000Y-94920000D03*
X135560000Y-92380000D03*
X135560000Y-94920000D03*
X138100000Y-92380000D03*
X138100000Y-94920000D03*
X140640000Y-92380000D03*
X140640000Y-94920000D03*
D12*
X107620000Y-77140000D03*
D13*
X107620000Y-79680000D03*
X110160000Y-77140000D03*
X110160000Y-79680000D03*
X112700000Y-77140000D03*
X112700000Y-79680000D03*
X115240000Y-77140000D03*
X115240000Y-79680000D03*
X117780000Y-77140000D03*
X117780000Y-79680000D03*
X120320000Y-77140000D03*
X120320000Y-79680000D03*
X122860000Y-77140000D03*
X122860000Y-79680000D03*
X125400000Y-77140000D03*
X125400000Y-79680000D03*
X127940000Y-77140000D03*
X127940000Y-79680000D03*
X130480000Y-77140000D03*
X130480000Y-79680000D03*
X133020000Y-77140000D03*
X133020000Y-79680000D03*
X135560000Y-77140000D03*
X135560000Y-79680000D03*
X138100000Y-77140000D03*
X138100000Y-79680000D03*
X140640000Y-77140000D03*
X140640000Y-79680000D03*
D11*
X103500000Y-96500000D03*
D12*
X102540000Y-82220000D03*
D13*
X102540000Y-84760000D03*
X105080000Y-82220000D03*
X105080000Y-84760000D03*
X107620000Y-82220000D03*
X107620000Y-84760000D03*
X110160000Y-82220000D03*
X110160000Y-84760000D03*
X112700000Y-82220000D03*
X112700000Y-84760000D03*
X115240000Y-82220000D03*
X115240000Y-84760000D03*
X117780000Y-82220000D03*
X117780000Y-84760000D03*
X120320000Y-82220000D03*
X120320000Y-84760000D03*
X122860000Y-82220000D03*
X122860000Y-84760000D03*
X125400000Y-82220000D03*
X125400000Y-84760000D03*
X127940000Y-82220000D03*
X127940000Y-84760000D03*
X130480000Y-82220000D03*
X130480000Y-84760000D03*
X133020000Y-82220000D03*
X133020000Y-84760000D03*
X135560000Y-82220000D03*
X135560000Y-84760000D03*
X138100000Y-82220000D03*
X138100000Y-84760000D03*
X140640000Y-82220000D03*
X140640000Y-84760000D03*
D11*
X103500000Y-47500000D03*
D12*
X108630000Y-64500000D03*
D13*
X111170000Y-64500000D03*
X113710000Y-64500000D03*
X116250000Y-64500000D03*
X118790000Y-64500000D03*
D12*
X148260000Y-82220000D03*
D13*
X148260000Y-84760000D03*
X150800000Y-82220000D03*
X150800000Y-84760000D03*
X153340000Y-82220000D03*
X153340000Y-84760000D03*
X155880000Y-82220000D03*
X155880000Y-84760000D03*
X158420000Y-82220000D03*
X158420000Y-84760000D03*
X160960000Y-82220000D03*
X160960000Y-84760000D03*
D12*
X107620000Y-72060000D03*
D13*
X107620000Y-74600000D03*
X110160000Y-72060000D03*
X110160000Y-74600000D03*
X112700000Y-72060000D03*
X112700000Y-74600000D03*
X115240000Y-72060000D03*
X115240000Y-74600000D03*
X117780000Y-72060000D03*
X117780000Y-74600000D03*
X120320000Y-72060000D03*
X120320000Y-74600000D03*
X122860000Y-72060000D03*
X122860000Y-74600000D03*
X125400000Y-72060000D03*
X125400000Y-74600000D03*
X127940000Y-72060000D03*
X127940000Y-74600000D03*
D11*
X161500000Y-96500000D03*
D12*
X102540000Y-87300000D03*
D13*
X102540000Y-89840000D03*
X105080000Y-87300000D03*
X105080000Y-89840000D03*
X107620000Y-87300000D03*
X107620000Y-89840000D03*
X110160000Y-87300000D03*
X110160000Y-89840000D03*
X112700000Y-87300000D03*
X112700000Y-89840000D03*
X115240000Y-87300000D03*
X115240000Y-89840000D03*
X117780000Y-87300000D03*
X117780000Y-89840000D03*
X120320000Y-87300000D03*
X120320000Y-89840000D03*
X122860000Y-87300000D03*
X122860000Y-89840000D03*
X125400000Y-87300000D03*
X125400000Y-89840000D03*
X127940000Y-87300000D03*
X127940000Y-89840000D03*
X130480000Y-87300000D03*
X130480000Y-89840000D03*
X133020000Y-87300000D03*
X133020000Y-89840000D03*
X135560000Y-87300000D03*
X135560000Y-89840000D03*
X138100000Y-87300000D03*
X138100000Y-89840000D03*
X140640000Y-87300000D03*
X140640000Y-89840000D03*
D12*
X148260000Y-77140000D03*
D13*
X148260000Y-79680000D03*
X150800000Y-77140000D03*
X150800000Y-79680000D03*
X153340000Y-77140000D03*
X153340000Y-79680000D03*
X155880000Y-77140000D03*
X155880000Y-79680000D03*
X158420000Y-77140000D03*
X158420000Y-79680000D03*
X160960000Y-77140000D03*
X160960000Y-79680000D03*
D14*
X108190000Y-51000000D03*
X108190000Y-45960000D03*
X110730000Y-51000000D03*
X110730000Y-45960000D03*
X113270000Y-51000000D03*
X113270000Y-45960000D03*
X115810000Y-51000000D03*
X115810000Y-45960000D03*
X118350000Y-51000000D03*
X118350000Y-45960000D03*
X120890000Y-51000000D03*
X120890000Y-45960000D03*
X123430000Y-51000000D03*
X123430000Y-45960000D03*
X125970000Y-51000000D03*
X125970000Y-45960000D03*
X128510000Y-51000000D03*
X128510000Y-45960000D03*
X131050000Y-51000000D03*
X131050000Y-45960000D03*
X133590000Y-51000000D03*
X133590000Y-45960000D03*
X136130000Y-51000000D03*
X136130000Y-45960000D03*
X138670000Y-51000000D03*
X138670000Y-45960000D03*
X141210000Y-51000000D03*
X141210000Y-45960000D03*
X143750000Y-51000000D03*
X143750000Y-45960000D03*
X146290000Y-51000000D03*
X146290000Y-45960000D03*
X148830000Y-51000000D03*
X148830000Y-45960000D03*
X151370000Y-51000000D03*
X151370000Y-45960000D03*
X153910000Y-51000000D03*
X153910000Y-45960000D03*
X156450000Y-51000000D03*
X156450000Y-45960000D03*
M02*
